HIERARCHY
ROOT Hips
{
	OFFSET 51.868301 -9.634774 85.466499
	CHANNELS 6 Xposition Yposition Zposition Xrotation Yrotation Zrotation
	JOINT spine
	{
		OFFSET 0.000000 -0.367607 6.392601
		CHANNELS 3 Xrotation Yrotation Zrotation
		JOINT spine1
		{
			OFFSET 0.000000 -0.000001 9.176109
			CHANNELS 3 Xrotation Yrotation Zrotation
			JOINT spine2
			{
				OFFSET 0.000000 -0.000002 8.792381
				CHANNELS 3 Xrotation Yrotation Zrotation
				JOINT Neck
				{
					OFFSET 0.000000 -1.076243 22.573700
					CHANNELS 3 Xrotation Yrotation Zrotation
					JOINT Head
					{
						OFFSET 0.000000 -0.000001 6.820114
						CHANNELS 3 Xrotation Yrotation Zrotation
						End Site
						{
							OFFSET 0.000000 5.444268 16.508499
						}
					}
				}
				JOINT RightShoulder
				{
					OFFSET -3.702209 0.515507 9.495087
					CHANNELS 3 Xrotation Yrotation Zrotation
					JOINT RightArm
					{
						OFFSET 0.000000 -0.000003 12.453705
						CHANNELS 3 Xrotation Yrotation Zrotation
						JOINT RightArmRoll
						{
							OFFSET 0.000000 -0.000001 6.286865
							CHANNELS 3 Xrotation Yrotation Zrotation
							JOINT RightForeArm
							{
								OFFSET 0.000000 -0.000003 18.311401
								CHANNELS 3 Xrotation Yrotation Zrotation
								JOINT RightForeArmRoll
								{
									OFFSET 0.000000 -0.000001 7.054825
									CHANNELS 3 Xrotation Yrotation Zrotation
									JOINT RightHand
									{
										OFFSET 0.000000 -0.000002 14.157501
										CHANNELS 3 Xrotation Yrotation Zrotation
										End Site
										{
											OFFSET 0.000000 0.000000 0.100006
										}
									}
								}
							}
						}
					}
				}
				JOINT LeftShoulder
				{
					OFFSET 3.702209 0.515507 9.495087
					CHANNELS 3 Xrotation Yrotation Zrotation
					JOINT LeftArm
					{
						OFFSET 0.000000 -0.000003 12.453705
						CHANNELS 3 Xrotation Yrotation Zrotation
						JOINT LeftArmRoll
						{
							OFFSET 0.000000 -0.000001 6.286865
							CHANNELS 3 Xrotation Yrotation Zrotation
							JOINT LeftForeArm
							{
								OFFSET 0.000000 -0.000003 18.311401
								CHANNELS 3 Xrotation Yrotation Zrotation
								JOINT LeftForeArmRoll
								{
									OFFSET 0.000000 -0.000001 7.054825
									CHANNELS 3 Xrotation Yrotation Zrotation
									JOINT LeftHand
									{
										OFFSET 0.000000 -0.000002 14.157501
										CHANNELS 3 Xrotation Yrotation Zrotation
										End Site
										{
											OFFSET 0.000000 0.000000 0.100006
										}
									}
								}
							}
						}
					}
				}
			}
		}
	}
	JOINT RightUpLeg
	{
		OFFSET -5.666161 0.871611 -1.039032
		CHANNELS 3 Xrotation Yrotation Zrotation
		JOINT RightUpLegRoll
		{
			OFFSET 0.000000 -0.000003 16.600502
			CHANNELS 3 Xrotation Yrotation Zrotation
			JOINT RightLeg
			{
				OFFSET 0.000000 0.000003 -20.557198
				CHANNELS 3 Xrotation Yrotation Zrotation
				JOINT RightLegRoll
				{
					OFFSET 0.000000 -0.000003 20.624397
					CHANNELS 3 Xrotation Yrotation Zrotation
					JOINT RightFoot
					{
						OFFSET 0.000000 -0.000003 17.166397
						CHANNELS 3 Xrotation Yrotation Zrotation
						JOINT RightToeBase
						{
							OFFSET 0.000000 -0.000003 14.350204
							CHANNELS 3 Xrotation Yrotation Zrotation
							End Site
							{
								OFFSET 0.006081 0.801060 6.949707
							}
						}
					}
				}
			}
		}
	}
	JOINT LeftUpLeg
	{
		OFFSET 5.666161 0.871611 -1.039032
		CHANNELS 3 Xrotation Yrotation Zrotation
		JOINT LeftUpLegRoll
		{
			OFFSET 0.000000 -0.000003 16.600601
			CHANNELS 3 Xrotation Yrotation Zrotation
			JOINT LeftLeg
			{
				OFFSET 0.000000 -0.000004 20.557098
				CHANNELS 3 Xrotation Yrotation Zrotation
				JOINT LeftLegRoll
				{
					OFFSET 0.000000 -0.000003 20.815102
					CHANNELS 3 Xrotation Yrotation Zrotation
					JOINT LeftFoot
					{
						OFFSET 0.000000 -0.000003 16.975708
						CHANNELS 3 Xrotation Yrotation Zrotation
						JOINT LeftToeBase
						{
							OFFSET 0.000000 -0.000003 14.350204
							CHANNELS 3 Xrotation Yrotation Zrotation
							End Site
							{
								OFFSET -0.027260 0.801060 6.949707
							}
						}
					}
				}
			}
		}
	}
}
MOTION
Frames: 10
Frame Time: 0.041667
51.971096 -10.679417 90.111496 3.734283 -0.134119 1.674863 -2.158734 0.560885 -0.250571 -0.312425 1.128743 -0.485282 1.332766 1.122846 -0.498768 21.354778 5.152168 -2.417394 6.863048 -10.951889 -0.900965 -23.682940 -30.715419 -29.211633 -121.202076 -127.048321 -72.779511 0.000000 0.000000 -0.000002 52.593959 3.571283 -0.615772 -0.000001 -0.000000 -3.000008 -5.000163 -7.998881 0.000164 -25.457850 19.019983 32.714086 -120.189500 122.605516 74.619277 -0.000002 -0.000005 0.000005 54.232460 -11.007305 0.936263 0.000002 -0.000001 3.000002 -5.000209 7.998720 -0.000164 -9.847023 -166.386810 2.260445 -179.999991 0.000005 -1.330994 162.130714 0.797584 -0.793866 0.000000 0.000001 -0.006918 66.028190 6.980693 2.106952 25.398975 -7.355582 -0.074695 -11.568714 165.918040 -1.126490 -0.000005 -0.000006 -1.347869 -16.220461 -2.171318 0.172190 -0.000006 0.000007 0.189753 65.115363 -7.155957 -1.754238 25.456959 7.355616 -0.000002 
51.960495 -10.660516 90.217896 3.811331 -0.190190 1.664110 -2.164580 0.554340 -0.248179 -0.324155 1.115602 -0.480663 1.321028 1.109755 -0.493990 21.243555 5.578694 -2.410785 6.880534 -11.227347 -0.869626 -23.517699 -30.930693 -28.967628 -121.038575 -126.481593 -73.017372 -0.000000 0.000001 -0.000002 51.963328 3.600527 -0.680921 0.000001 -0.000001 -3.000010 -5.000160 -7.998883 0.000164 -25.525438 19.702046 32.758059 -120.520368 122.352211 75.632986 -0.000002 -0.000005 0.000004 53.134442 -11.040560 1.032924 -0.000001 -0.000002 3.000000 -5.000206 7.998724 -0.000162 -10.066793 -166.500191 2.259848 -179.999991 0.000004 -1.319000 161.995135 0.665719 -0.819636 -0.000001 -0.000001 0.008935 66.099415 6.967806 2.133375 25.409685 -7.355594 -0.060964 -11.687244 166.194745 -1.050638 -0.000005 -0.000004 -1.335670 -16.353083 -2.081054 0.188703 -0.000006 0.000003 0.173514 65.162443 -7.144084 -1.779029 25.456957 7.355614 0.000001 
52.010098 -10.631817 90.334290 3.883476 -0.241997 1.655267 -2.169417 0.547579 -0.245334 -0.333865 1.102001 -0.475157 1.311310 1.096223 -0.488324 21.126697 5.979422 -2.403491 6.902478 -11.481228 -0.841467 -23.356233 -31.141469 -28.730211 -120.866713 -125.921463 -73.240856 -0.000000 -0.000000 -0.000002 51.313398 3.629568 -0.743241 -0.000002 -0.000002 -3.000009 -5.000159 -7.998880 0.000164 -25.588453 20.368322 32.795088 -120.825227 122.094658 76.628384 -0.000004 -0.000005 0.000003 52.015548 -11.059323 1.111197 0.000000 -0.000003 2.999999 -5.000208 7.998720 -0.000165 -10.280031 -166.620252 2.260039 -179.999991 0.000005 -1.308003 161.857192 0.532163 -0.844629 -0.000002 0.000001 0.024594 66.170149 6.955355 2.158943 25.420796 -7.355615 -0.046576 -11.804735 166.467310 -0.978808 -0.000004 -0.000004 -1.323670 -16.492935 -1.990680 0.205834 -0.000005 0.000005 0.157148 65.211661 -7.132396 -1.803129 25.456955 7.355615 0.000000 
52.010998 -10.589315 90.450493 3.950071 -0.291287 1.649054 -2.173218 0.541033 -0.242147 -0.341490 1.088821 -0.468975 1.303683 1.083120 -0.481982 21.006771 6.351228 -2.396055 6.927219 -11.710887 -0.817127 -23.199800 -31.349339 -28.500837 -120.687667 -125.370021 -73.450222 -0.000000 0.000000 -0.000000 50.642472 3.658670 -0.802718 -0.000001 -0.000003 -3.000011 -5.000157 -7.998883 0.000161 -25.646566 21.017797 32.824940 -121.097451 121.829142 77.598585 -0.000004 -0.000005 0.000005 50.883393 -11.056431 1.169460 0.000000 -0.000003 3.000000 -5.000206 7.998720 -0.000164 -10.484370 -166.743947 2.261278 -179.999991 0.000005 -1.296993 161.719632 0.398802 -0.871256 0.000000 0.000001 0.039846 66.239646 6.943368 2.183601 25.431709 -7.355625 -0.032512 -11.918322 166.737540 -0.910037 -0.000004 -0.000004 -1.311939 -16.635612 -1.900218 0.223411 -0.000007 0.000005 0.140914 65.262191 -7.120889 -1.826896 25.456962 7.355613 0.000001 
51.989799 -10.573414 90.531494 4.010509 -0.339806 1.646174 -2.175935 0.535131 -0.238729 -0.346959 1.076920 -0.462319 1.298217 1.071295 -0.475184 20.886433 6.690968 -2.389128 6.953084 -11.913581 -0.797301 -23.049281 -31.555652 -28.280482 -120.502651 -124.829220 -73.645579 -0.000000 0.000000 -0.000000 49.948361 3.688141 -0.859260 -0.000000 -0.000001 -3.000012 -5.000162 -7.998885 0.000162 -25.699803 21.649654 32.847589 -121.330879 121.552218 78.537162 -0.000003 -0.000005 0.000003 49.745982 -11.024645 1.206536 -0.000002 -0.000001 3.000004 -5.000204 7.998720 -0.000164 -10.677300 -166.869130 2.264017 -179.999991 0.000006 -1.285996 161.585187 0.266615 -0.897234 -0.000001 0.000001 0.054480 66.307306 6.931922 2.207205 25.441504 -7.355623 -0.019823 -12.025310 167.006321 -0.843076 -0.000005 -0.000003 -1.300520 -16.776811 -1.809619 0.241249 -0.000005 0.000004 0.125077 65.313404 -7.109631 -1.849987 25.456962 7.355611 0.000000 
51.990395 -10.541319 90.619186 4.064164 -0.389293 1.647360 -2.177541 0.530304 -0.235191 -0.350206 1.067150 -0.455397 1.294962 1.061619 -0.468146 20.768362 6.995517 -2.383463 6.978401 -12.086673 -0.782731 -22.906142 -31.762203 -28.070761 -120.312949 -124.301479 -73.827549 -0.000001 -0.000001 -0.000005 49.229377 3.718259 -0.912808 0.000003 -0.000000 -3.000008 -5.000158 -7.998882 0.000163 -25.747923 22.262938 32.862987 -121.518669 121.260583 79.437347 -0.000003 -0.000005 0.000006 48.611153 -10.956307 1.222031 -0.000001 -0.000001 3.000002 -5.000209 7.998721 -0.000163 -10.856387 -166.992757 2.268433 -179.999991 0.000006 -1.275997 161.456738 0.136527 -0.923198 -0.000000 -0.000000 0.068282 66.372609 6.921028 2.229792 25.449585 -7.355627 -0.009478 -12.123020 167.276455 -0.777076 -0.000004 -0.000004 -1.289470 -16.912334 -1.718861 0.259123 -0.000006 0.000004 0.109894 65.364569 -7.098596 -1.872635 25.456955 7.355613 0.000000 
52.000496 -10.517716 90.701698 4.110411 -0.441491 1.653336 -2.178002 0.526983 -0.231645 -0.351162 1.060400 -0.448417 1.294009 1.054941 -0.461085 20.655040 7.261746 -2.379864 7.001481 -12.227428 -0.774171 -22.771542 -31.970507 -27.872933 -120.119395 -123.788709 -73.995694 0.000000 0.000000 -0.000001 48.483534 3.749335 -0.963284 0.000003 -0.000000 -3.000010 -5.000159 -7.998886 0.000163 -25.790770 22.856581 32.870863 -121.654070 120.950588 80.292009 -0.000005 -0.000005 0.000006 47.486996 -10.843520 1.215856 0.000002 -0.000002 3.000002 -5.000207 7.998722 -0.000166 -11.019245 -167.113760 2.275007 -179.999991 0.000005 -1.265997 161.337114 0.009470 -0.947805 -0.000001 0.000001 0.081042 66.434853 6.910756 2.251116 25.454940 -7.355627 -0.002541 -12.208598 167.550797 -0.711176 -0.000006 -0.000004 -1.278819 -17.037781 -1.627906 0.276787 -0.000007 0.000004 0.095628 65.414860 -7.087776 -1.894803 25.456959 7.355614 0.000002 
52.023296 -10.528615 90.787689 4.148618 -0.498143 1.664832 -2.177280 0.525598 -0.228201 -0.349759 1.057520 -0.441584 1.295408 1.052151 -0.454219 20.549177 7.486535 -2.379223 7.020642 -12.333212 -0.772395 -22.646436 -32.182161 -27.688156 -119.923451 -123.293234 -74.150596 -0.000001 0.000000 -0.000004 47.708964 3.781660 -1.010555 0.000000 -0.000002 -3.000007 -5.000158 -7.998885 0.000165 -25.828331 23.429738 32.871433 -121.730063 120.618818 81.094112 -0.000003 -0.000004 0.000005 46.382035 -10.678186 1.188368 -0.000003 -0.000002 3.000000 -5.000209 7.998724 -0.000164 -11.163463 -167.228999 2.283814 -179.999991 0.000006 -1.256995 161.229061 -0.114564 -0.970937 -0.000001 0.000001 0.092546 66.493415 6.901110 2.271111 25.456955 -7.355625 0.000005 -12.279388 167.830152 -0.644013 -0.000004 -0.000003 -1.268640 -17.148956 -1.536717 0.293959 -0.000006 0.000004 0.082538 65.463654 -7.077211 -1.916332 25.456957 7.355615 0.000001 
52.018795 -10.499017 90.866089 4.177395 -0.554288 1.681584 -2.174880 0.525175 -0.224461 -0.344979 1.056551 -0.434142 1.300188 1.051269 -0.446765 20.441059 7.664520 -2.381577 7.042792 -12.397990 -0.777881 -22.531935 -32.390560 -27.518139 -119.713600 -122.813864 -74.281606 0.000000 0.000000 0.000000 46.899053 3.817257 -1.056286 0.000001 -0.000001 -3.000013 -5.000157 -7.998884 0.000164 -25.856451 23.976406 32.860265 -121.728260 120.266599 81.845064 -0.000003 -0.000005 0.000004 45.259712 -10.454703 1.142392 -0.000000 -0.000001 3.000001 -5.000207 7.998724 -0.000164 -11.289589 -167.345427 2.295260 -179.999991 0.000007 -1.249004 161.129149 -0.237513 -0.994183 -0.000001 0.000001 0.103127 66.548698 6.892114 2.289863 25.456957 -7.355625 0.000004 -12.339661 168.109902 -0.580489 -0.000005 -0.000005 -1.258850 -17.254233 -1.442393 0.311607 -0.000007 0.000004 0.069949 65.513836 -7.066750 -1.937606 25.456957 7.355612 -0.000001 
52.010796 -10.506314 90.937881 4.196443 -0.604260 1.702546 -2.170442 0.524503 -0.220005 -0.336158 1.055052 -0.425290 1.309010 1.049876 -0.437896 20.320144 7.795430 -2.386229 7.074902 -12.420096 -0.790230 -22.427519 -32.589336 -27.362749 -119.477917 -122.347348 -74.379374 0.000000 0.000000 -0.000002 46.051287 3.857404 -1.101683 -0.000002 -0.000001 -3.000011 -5.000158 -7.998882 0.000162 -25.871942 24.493156 32.833658 -121.642582 119.898042 82.554406 -0.000004 -0.000005 0.000005 44.084985 -10.176927 1.084270 -0.000002 -0.000002 3.000001 -5.000208 7.998725 -0.000164 -11.400784 -167.470993 2.309335 -179.999991 0.000005 -1.240002 161.031504 -0.365980 -1.018792 -0.000002 0.000001 0.113271 66.601543 6.883713 2.307395 25.456955 -7.355625 0.000005 -12.395919 168.380542 -0.524465 -0.000004 -0.000004 -1.249329 -17.364817 -1.342871 0.330766 -0.000007 0.000005 0.057063 65.568464 -7.056183 -1.958780 25.456957 7.355612 0.000002 
